Coordinates
version=1
nRows=29
nColumns=24
inDegrees=yes

Units are S.I. units (second, meters, Newtons, ...)
Angles are in degrees.

endheader
time	pelvis_tilt	pelvis_list	pelvis_rotation	pelvis_tx	pelvis_ty	pelvis_tz	hip_flexion_r	hip_adduction_r	hip_rotation_r	knee_angle_r	ankle_angle_r	subtalar_angle_r	mtp_angle_r	hip_flexion_l	hip_adduction_l	hip_rotation_l	knee_angle_l	ankle_angle_l	subtalar_angle_l	mtp_angle_l	lumbar_extension	lumbar_bending	lumbar_rotation
      0.65800000	     -2.46975235	     -1.10513696	     -2.16621663	     -0.53782864	      1.07015501	      0.34275227	     15.29457058	      5.07452074	     -4.82729569	    -17.08142051	      3.39141097	     -0.94641807	      2.29480525	     20.03287945	     -1.84639470	     -1.39650642	    -66.05747430	      4.75094353	      1.15083533	      6.31732923	      2.82453301	      6.15527751	      2.65180927
      0.66216667	     -2.45751745	     -1.09744812	     -2.16814655	     -0.53266901	      1.07085997	      0.34305419	     14.91137381	      5.07874101	     -4.78023502	    -16.95448909	      3.55052259	     -0.85347683	      2.31910981	     20.58258171	     -1.81560011	     -1.17990004	    -65.78553924	      5.14644583	      0.98635184	      6.36140480	      2.79748964	      6.08018457	      2.71422304
      0.66633333	     -2.45048023	     -1.06145534	     -2.16583674	     -0.52751642	      1.07154788	      0.34316573	     14.53767796	      5.03181308	     -4.73788705	    -16.85046752	      3.72084123	     -0.78289451	      2.34028885	     21.11659953	     -1.72842581	     -0.95344023	    -65.42576673	      5.56378914	      0.78491690	      6.39902903	      2.77160214	      6.04078635	      2.76954556
      0.67050000	     -2.43575341	     -1.04039340	     -2.18417564	     -0.52231492	      1.07224462	      0.34336584	     14.15607021	      5.01406696	     -4.75208975	    -16.73835732	      3.92944231	     -0.68737772	      2.36791382	     21.61417933	     -1.67112643	     -0.76798006	    -64.97924665	      6.02766628	      0.52119594	      6.44503829	      2.74460445	      6.01189117	      2.83688998
      0.67466667	     -2.43497625	     -1.01338100	     -2.19069463	     -0.51712317	      1.07289698	      0.34355599	     13.77996440	      4.99045534	     -4.71652973	    -16.60768332	      4.09686897	     -0.60779949	      2.39137554	     22.10957594	     -1.60173162	     -0.57035346	    -64.44979423	      6.36739670	      0.27323326	      6.48097530	      2.72833788	      5.96356963	      2.89935023
      0.67883333	     -2.42474057	     -0.97953299	     -2.19689862	     -0.51192305	      1.07355040	      0.34371717	     13.39078202	      4.95837006	     -4.68137230	    -16.47191247	      4.26421779	     -0.54954501	      2.41352229	     22.57033028	     -1.52038580	     -0.38018387	    -63.83604673	      6.68473767	     -0.01242612	      6.51245623	      2.71437254	      5.92148156	      2.95905751
      0.68300000	     -2.41840481	     -0.94695152	     -2.20615242	     -0.50671488	      1.07417932	      0.34386806	     13.00296104	      4.92852780	     -4.64033766	    -16.33111134	      4.43153011	     -0.49753999	      2.43639108	     23.01260810	     -1.43980936	     -0.19980820	    -63.14251557	      6.96879999	     -0.34809398	      6.54161278	      2.69056629	      5.87722112	      3.01981464
      0.68716667	     -2.40745450	     -0.90839078	     -2.21746494	     -0.50150497	      1.07479350	      0.34397719	     12.60962442	      4.88881861	     -4.60155163	    -16.19347830	      4.60534904	     -0.44452858	      2.46409494	     23.42495713	     -1.34861647	     -0.02464073	    -62.36635085	      7.20724335	     -0.76352519	      6.57270616	      2.65799445	      5.83803269	      3.08957613
      0.69133333	     -2.44222802	     -0.88304415	     -2.22508734	     -0.49634896	      1.07527146	      0.34410989	     12.26414955	      4.87266067	     -4.50968347	    -16.03982119	      4.66800539	     -0.43791584	      2.47094429	     23.87598481	     -1.27522049	      0.16301702	    -61.52992588	      7.31511177	     -0.90083539	      6.57857586	      2.58972765	      5.83903845	      3.10360400
      0.69550000	     -2.38683288	     -0.84321009	     -2.23983924	     -0.49107797	      1.07592255	      0.34420391	     11.81161760	      4.83423504	     -4.49577494	    -15.88209456	      4.91391834	     -0.44229333	      2.50632704	     24.18489954	     -1.18002520	      0.29939091	    -60.59420520	      7.55013290	     -1.68800068	      6.60468539	      2.53483915	      5.75712113	      3.20051054
      0.69966667	     -2.36089023	     -0.80971366	     -2.24422069	     -0.48581102	      1.07649172	      0.34430183	     11.38228514	      4.80667885	     -4.42439417	    -15.70218153	      5.04185497	     -0.43798074	      2.54406287	     24.50439747	     -1.09138625	      0.45929841	    -59.57891138	      7.54487430	     -2.25496174	      6.62783962	      2.49936440	      5.71289320	      3.28793038
      0.70383333	     -2.37477703	     -0.80777479	     -2.22122223	     -0.48051660	      1.07694430	      0.34447538	     10.97767409	      4.82645720	     -4.31335150	    -15.48524604	      5.12334015	     -0.45807123	      2.55701912	     24.85068928	     -1.04148436	      0.65136756	    -58.51703219	      7.63778725	     -2.50383372	      6.63267396	      2.55813916	      5.70427257	      3.32486134
      0.70800000	     -2.35930792	     -0.77047957	     -2.24177155	     -0.47528056	      1.07741768	      0.34452871	     10.56406412	      4.79815147	     -4.22580646	    -15.31181399	      5.27516886	     -0.58352782	      2.58842255	     25.13423628	     -0.94965295	      0.78366188	    -57.36580811	      7.63883247	     -3.26997354	      6.63375893	      2.45359252	      5.63260865	      3.39160097
      0.71216667	     -2.36035418	     -0.77259170	     -2.21373871	     -0.46995652	      1.07782765	      0.34465269	     10.13715278	      4.82318937	     -4.10618741	    -15.07828870	      5.34015961	     -0.62779720	      2.59998803	     25.41423525	     -0.89967660	      0.97192168	    -56.16276489	      7.66000939	     -3.53236489	      6.63004399	      2.53272409	      5.65855600	      3.42366586
      0.71633333	     -2.36491328	     -0.73553069	     -2.23488992	     -0.46468140	      1.07819313	      0.34469569	      9.73667304	      4.80167596	     -3.98342623	    -14.88978995	      5.46083840	     -0.83652549	      2.62700216	     25.66528288	     -0.81189381	      1.09198667	    -54.86859750	      7.51314562	     -4.36428157	      6.60793845	      2.43661995	      5.56158802	      3.48744033
      0.72050000	     -2.38491947	     -0.75065160	     -2.19546549	     -0.45932679	      1.07849570	      0.34477845	      9.32094419	      4.84521504	     -3.84366293	    -14.63707261	      5.51401372	     -0.90057224	      2.63606945	     25.91603208	     -0.77149132	      1.28348375	    -53.54046498	      7.50525565	     -4.60812971	      6.59660810	      2.53925939	      5.62846188	      3.51163058
      0.72466667	     -2.37146954	     -0.71766021	     -2.21568757	     -0.45403715	      1.07881212	      0.34482733	      8.89422488	      4.83378270	     -3.68143284	    -14.43426935	      5.60236106	     -1.19958090	      2.65870082	     26.09471152	     -0.69303166	      1.39675924	    -52.11302611	      7.21558272	     -5.48203943	      6.54952821	      2.42574056	      5.51617583	      3.57311009
      0.72883333	     -2.39441847	     -0.71979992	     -2.19692774	     -0.44869292	      1.07902716	      0.34484346	      8.49036431	      4.86311305	     -3.52055965	    -14.19850910	      5.63799299	     -1.41227709	      2.67997400	     26.29387042	     -0.64158538	      1.55616809	    -50.64582891	      6.98800351	     -6.02842370	      6.50043922	      2.45048755	      5.53715585	      3.62415316
      0.73300000	     -2.41983310	     -0.71526526	     -2.18897772	     -0.44331800	      1.07919486	      0.34488498	      8.08669702	      4.89195551	     -3.32442573	    -13.96274487	      5.69859257	     -1.66658939	      2.69745306	     26.46553838	     -0.59162995	      1.69652258	    -49.12057892	      6.77649044	     -6.54721815	      6.44393644	      2.47456400	      5.51952374	      3.66486864
      0.73716667	     -2.46741937	     -0.74876368	     -2.13491118	     -0.43794297	      1.07925776	      0.34487603	      7.69970064	      4.96110360	     -3.15650614	    -13.70889402	      5.75028029	     -1.79255223	      2.70258165	     26.64928807	     -0.56846191	      1.88519943	    -47.56873156	      6.71409565	     -6.76250319	      6.41743576	      2.60365125	      5.62205052	      3.67648294
      0.74133333	     -2.50398703	     -0.73868076	     -2.15058318	     -0.43256734	      1.07931936	      0.34493077	      7.31235653	      4.99215039	     -2.89563181	    -13.48260819	      5.78944633	     -2.28594918	      2.71180783	     26.77953040	     -0.52773698	      1.98607250	    -45.91960392	      6.21387575	     -7.52190274	      6.32856704	      2.55880589	      5.51579377	      3.71652375
      0.74550000	     -2.55896725	     -0.77968251	     -2.10099653	     -0.42718328	      1.07927012	      0.34482129	      6.94055422	      5.06536541	     -2.71090517	    -13.25160307	      5.82473182	     -2.41907223	      2.71453794	     26.91971644	     -0.50811371	      2.18327917	    -44.26937130	      6.14149455	     -7.70174830	      6.29787982	      2.69888151	      5.66383535	      3.72159777
      0.74966667	     -2.59526648	     -0.77798380	     -2.10784674	     -0.42174444	      1.07924102	      0.34491113	      6.54608698	      5.11358413	     -2.42609226	    -13.00908943	      5.85037072	     -2.98192982	      2.71752780	     27.00022638	     -0.48573847	      2.25985206	    -42.52495089	      5.55165634	     -8.37698602	      6.19251482	      2.66617940	      5.55012998	      3.76312383
      0.75383333	     -2.62866168	     -0.80637910	     -2.07930513	     -0.41632062	      1.07914818	      0.34486912	      6.14860504	      5.18480372	     -2.17193899	    -12.76734498	      5.84048232	     -3.38894815	      2.72066575	     27.06382174	     -0.47256456	      2.39330556	    -40.76578314	      5.18025561	     -8.81986869	      6.08669931	      2.70353998	      5.60256734	      3.79285183
      0.75800000	     -2.70191578	     -0.86388920	     -2.02842591	     -0.41090204	      1.07890832	      0.34469919	      5.80566780	      5.27798841	     -1.97736205	    -12.55770618	      5.89378749	     -3.54645383	      2.72094030	     27.15840603	     -0.47316439	      2.57468236	    -39.00554629	      5.08413391	     -8.92491301	      6.05086744	      2.85430356	      5.77455569	      3.78903960
      0.76216667	     -2.74721854	     -0.87886809	     -2.03422014	     -0.40542290	      1.07871568	      0.34478720	      5.42239104	      5.35055158	     -1.63572768	    -12.32723176	      5.92793538	     -4.19931723	      2.71599170	     27.18205008	     -0.47809472	      2.63445887	    -37.15595629	      4.41797656	     -9.41536055	      5.92526476	      2.83984798	      5.66733716	      3.81794247
      0.76633333	     -2.82724819	     -0.94357148	     -1.96879328	     -0.39990341	      1.07838260	      0.34460747	      5.07991333	      5.45504699	     -1.43784343	    -12.10469956	      5.96381158	     -4.39507367	      2.71409972	     27.24066743	     -0.48813854	      2.77742754	    -35.34219002	      4.30415958	     -9.51909539	      5.88192816	      3.00889951	      5.88103414	      3.80913081
      0.77050000	     -2.89089316	     -0.99111570	     -1.97133327	     -0.39446357	      1.07802430	      0.34468241	      4.72799853	      5.56508187	     -1.06580248	    -11.90136535	      5.97789777	     -5.13994736	      2.70327036	     27.25859745	     -0.53069372	      2.83860508	    -33.46698965	      3.60847931	     -9.93831232	      5.73486858	      2.99398934	      5.79962339	      3.83147455
      0.77466667	     -2.94352308	     -1.06074844	     -1.93681729	     -0.38897357	      1.07763784	      0.34461998	      4.36463102	      5.68658821	     -0.76515119	    -11.69756572	      5.96406604	     -5.67278628	      2.69294603	     27.24988184	     -0.57083631	      2.93502358	    -31.59994439	      3.22429844	    -10.18782318	      5.58393801	      3.06842338	      5.90748653	      3.84117962
